<svg width="20" height="20" viewBox="0 0 20 20" fill="none" xmlns="http://www.w3.org/2000/svg">
<path d="M15 9.79047C14.9179 9.79085 14.8366 9.77484 14.7607 9.74335C14.6849 9.71187 14.6161 9.66556 14.5584 9.60713L10 5.0488L5.4417 9.60713C5.32322 9.71753 5.16652 9.77764 5.0046 9.77478C4.84268 9.77192 4.68819 9.70633 4.57368 9.59182C4.45917 9.47731 4.39358 9.32282 4.39072 9.1609C4.38787 8.99898 4.44797 8.84228 4.55837 8.7238L9.55837 3.7238C9.67556 3.60676 9.83441 3.54102 10 3.54102C10.1657 3.54102 10.3245 3.60676 10.4417 3.7238L15.4417 8.7238C15.5587 8.84099 15.6245 8.99984 15.6245 9.16547C15.6245 9.33109 15.5587 9.48994 15.4417 9.60713C15.384 9.66556 15.3152 9.71187 15.2394 9.74335C15.1635 9.77484 15.0822 9.79085 15 9.79047Z" fill="#1E293B"/>
<path d="M10 16.4577C9.83491 16.4555 9.67719 16.389 9.56045 16.2722C9.4437 16.1555 9.37716 15.9978 9.375 15.8327V4.16602C9.375 4.00026 9.44085 3.84128 9.55806 3.72407C9.67527 3.60686 9.83424 3.54102 10 3.54102C10.1658 3.54102 10.3247 3.60686 10.4419 3.72407C10.5592 3.84128 10.625 4.00026 10.625 4.16602V15.8327C10.6228 15.9978 10.5563 16.1555 10.4396 16.2722C10.3228 16.389 10.1651 16.4555 10 16.4577Z" fill="#1E293B"/>
</svg>
