<svg width="25" height="24" viewBox="0 0 25 24" fill="none" xmlns="http://www.w3.org/2000/svg">
<path d="M12.5 19.7498C12.4015 19.7503 12.3038 19.7311 12.2128 19.6933C12.1218 19.6555 12.0392 19.6 11.97 19.5298L5.97 13.5298C5.83752 13.3877 5.7654 13.1996 5.76882 13.0053C5.77225 12.811 5.85096 12.6256 5.98838 12.4882C6.12579 12.3508 6.31118 12.2721 6.50548 12.2687C6.69978 12.2652 6.88782 12.3374 7.03 12.4698L12.5 17.9398L17.97 12.4698C18.1122 12.3374 18.3002 12.2652 18.4945 12.2687C18.6888 12.2721 18.8742 12.3508 19.0116 12.4882C19.149 12.6256 19.2277 12.811 19.2312 13.0053C19.2346 13.1996 19.1625 13.3877 19.03 13.5298L13.03 19.5298C12.9608 19.6 12.8782 19.6555 12.7872 19.6933C12.6962 19.7311 12.5985 19.7503 12.5 19.7498Z" fill="#475569"/>
<path d="M12.5 19.75C12.3019 19.7474 12.1126 19.6676 11.9725 19.5275C11.8324 19.3874 11.7526 19.1981 11.75 19V5C11.75 4.80109 11.829 4.61032 11.9697 4.46967C12.1103 4.32902 12.3011 4.25 12.5 4.25C12.6989 4.25 12.8897 4.32902 13.0303 4.46967C13.171 4.61032 13.25 4.80109 13.25 5V19C13.2474 19.1981 13.1676 19.3874 13.0275 19.5275C12.8874 19.6676 12.6981 19.7474 12.5 19.75Z" fill="#475569"/>
</svg>
