<svg width="14" height="12" viewBox="0 0 10 6" fill="none" xmlns="http://www.w3.org/2000/svg">
<path d="M5.00007 5.70855C4.91795 5.70894 4.83658 5.69292 4.76074 5.66144C4.6849 5.62996 4.61611 5.58364 4.5584 5.52522L0.391735 1.35855C0.308631 1.23697 0.271129 1.08995 0.285843 0.943413C0.300558 0.796881 0.366544 0.660251 0.472163 0.557621C0.577782 0.454991 0.716249 0.392954 0.863143 0.382452C1.01004 0.371949 1.15592 0.413656 1.27507 0.500215L5.00007 4.20022L8.72507 0.500215C8.84253 0.424056 8.98217 0.389539 9.12158 0.402195C9.261 0.414851 9.39214 0.473949 9.49397 0.570015C9.5958 0.666081 9.66243 0.793552 9.68318 0.931999C9.70393 1.07045 9.6776 1.21185 9.6084 1.33355L5.44173 5.50022C5.38618 5.56318 5.31835 5.61414 5.2424 5.64996C5.16646 5.68579 5.08399 5.70572 5.00007 5.70855Z" fill="white"/>
</svg>
