<svg width="24" height="23" viewBox="0 0 24 23" fill="none" xmlns="http://www.w3.org/2000/svg">
<path d="M14.2046 8.15666C14.7717 7.96347 15.368 7.86522 15.9685 7.86605C16.5741 7.86605 17.1565 7.96473 17.7 8.1458M17.7 8.1458C17.4046 5.59181 15.1629 3.60547 12.4407 3.60547C9.5185 3.60547 7.14998 5.89419 7.14998 8.71798C7.14953 9.32458 7.25995 9.92629 7.47776 10.4943M17.7 8.1458C19.7704 8.83839 21.2592 10.7405 21.2592 12.9786C21.2592 14.7349 20.3426 16.2858 18.9444 17.2065M7.47776 10.4943C7.22455 10.4461 6.96719 10.4219 6.70924 10.4218C4.51757 10.4228 2.74072 12.1393 2.74072 14.2569C2.74072 15.4429 3.29813 16.5022 4.17313 17.2065M7.47776 10.4943C7.99007 10.5916 8.47776 10.7866 8.91294 11.0683M16.6296 18.0911L14.7778 19.9018M15.7037 14.9223L13.8518 16.733M12 18.9964L10.1481 20.8071M11.537 14.9223L9.68517 16.733M7.83331 18.0911L5.98146 19.9018" stroke="#1E3A8A" stroke-width="1.5" stroke-linecap="round"/>
</svg>
