<svg width="32" height="32" viewBox="0 0 32 32" fill="none" xmlns="http://www.w3.org/2000/svg">
<rect width="32" height="32" rx="4" fill="#991B1B"/>
<path d="M24 12.6992H8C7.90151 12.6992 7.80398 12.6798 7.71299 12.6421C7.62199 12.6044 7.53931 12.5492 7.46967 12.4795C7.40003 12.4099 7.34478 12.3272 7.30709 12.2362C7.2694 12.1452 7.25 12.0477 7.25 11.9492C7.25 11.8507 7.2694 11.7532 7.30709 11.6622C7.34478 11.5712 7.40003 11.4885 7.46967 11.4189C7.53931 11.3492 7.62199 11.294 7.71299 11.2563C7.80398 11.2186 7.90151 11.1992 8 11.1992H24C24.1989 11.1992 24.3897 11.2782 24.5303 11.4189C24.671 11.5595 24.75 11.7503 24.75 11.9492C24.75 12.1481 24.671 12.3389 24.5303 12.4795C24.3897 12.6202 24.1989 12.6992 24 12.6992Z" fill="white"/>
<path d="M20.44 24.7493H11.56C11.2431 24.771 10.925 24.7295 10.6243 24.6274C10.3235 24.5252 10.046 24.3643 9.80788 24.1541C9.56975 23.9439 9.37572 23.6885 9.23704 23.4027C9.09836 23.1169 9.01779 22.8065 9 22.4893V11.9993C9 11.8004 9.07902 11.6096 9.21967 11.469C9.36032 11.3283 9.55109 11.2493 9.75 11.2493C9.94891 11.2493 10.1397 11.3283 10.2803 11.469C10.421 11.6096 10.5 11.8004 10.5 11.9993V22.4893C10.5 22.8993 10.97 23.2493 11.5 23.2493H20.38C20.94 23.2493 21.38 22.8993 21.38 22.4893V11.9993C21.38 11.7845 21.4653 11.5785 21.6172 11.4266C21.7691 11.2747 21.9752 11.1893 22.19 11.1893C22.4048 11.1893 22.6109 11.2747 22.7628 11.4266C22.9147 11.5785 23 11.7845 23 11.9993V22.4893C22.9822 22.8065 22.9016 23.1169 22.763 23.4027C22.6243 23.6885 22.4303 23.9439 22.1921 24.1541C21.954 24.3643 21.6765 24.5252 21.3757 24.6274C21.075 24.7295 20.7569 24.771 20.44 24.7493ZM20.56 11.7493C20.4611 11.7507 20.363 11.7322 20.2714 11.695C20.1798 11.6577 20.0966 11.6026 20.0267 11.5326C19.9568 11.4627 19.9016 11.3795 19.8644 11.2879C19.8271 11.1963 19.8087 11.0982 19.81 10.9993V9.50931C19.81 9.09931 19.33 8.74931 18.81 8.74931H13.22C12.67 8.74931 12.22 9.09931 12.22 9.50931V10.9993C12.22 11.1982 12.141 11.389 12.0003 11.5296C11.8597 11.6703 11.6689 11.7493 11.47 11.7493C11.2711 11.7493 11.0803 11.6703 10.9397 11.5296C10.799 11.389 10.72 11.1982 10.72 10.9993V9.50931C10.7587 8.88062 11.042 8.29208 11.5093 7.86968C11.9765 7.44728 12.5906 7.2246 13.22 7.24931H18.78C19.4145 7.2165 20.0362 7.43553 20.51 7.85877C20.9838 8.282 21.2713 8.87519 21.31 9.50931V10.9993C21.3113 11.0986 21.2929 11.1972 21.2558 11.2894C21.2187 11.3815 21.1637 11.4654 21.0939 11.5361C21.0241 11.6068 20.941 11.663 20.8493 11.7013C20.7577 11.7396 20.6593 11.7593 20.56 11.7593V11.7493Z" fill="white"/>
<path d="M14.22 20.9987C14.0219 20.9962 13.8326 20.9163 13.6925 20.7762C13.5524 20.6361 13.4726 20.4469 13.47 20.2487V15.7188C13.47 15.5198 13.549 15.3291 13.6897 15.1884C13.8303 15.0478 14.0211 14.9688 14.22 14.9688C14.4189 14.9688 14.6097 15.0478 14.7503 15.1884C14.891 15.3291 14.97 15.5198 14.97 15.7188V20.2387C14.9713 20.3381 14.9529 20.4367 14.9158 20.5288C14.8787 20.621 14.8237 20.7048 14.7539 20.7756C14.6841 20.8463 14.601 20.9024 14.5093 20.9407C14.4177 20.979 14.3193 20.9988 14.22 20.9987Z" fill="white"/>
<path d="M17.78 20.9987C17.5811 20.9987 17.3903 20.9197 17.2497 20.7791C17.109 20.6384 17.03 20.4477 17.03 20.2487V15.7188C17.03 15.5198 17.109 15.3291 17.2497 15.1884C17.3903 15.0478 17.5811 14.9688 17.78 14.9688C17.9789 14.9688 18.1697 15.0478 18.3103 15.1884C18.451 15.3291 18.53 15.5198 18.53 15.7188V20.2387C18.53 20.4386 18.4513 20.6304 18.3109 20.7726C18.1706 20.9149 17.9798 20.9961 17.78 20.9987Z" fill="white"/>
</svg>
