<svg width="32" height="32" viewBox="0 0 32 32" fill="none" xmlns="http://www.w3.org/2000/svg">
<rect width="32" height="32" rx="4" fill="#007AFF"/>
<path d="M8.20999 24.5201C8.11375 24.5211 8.01826 24.503 7.92902 24.467C7.83977 24.431 7.75854 24.3776 7.68999 24.3101C7.61139 24.2324 7.55092 24.1384 7.51288 24.0347C7.47485 23.931 7.4602 23.8201 7.46999 23.7101L7.77999 19.8701C7.79328 19.6917 7.87156 19.5245 7.99999 19.4001L19.06 8.34007C19.6762 7.76298 20.4961 7.45373 21.34 7.48007C22.1784 7.48658 22.9828 7.81193 23.59 8.39007C24.1723 8.98807 24.5073 9.78403 24.5277 10.6185C24.5481 11.453 24.2524 12.2643 23.7 12.8901L12.63 24.0001C12.5061 24.1235 12.3439 24.2011 12.17 24.2201L8.27999 24.5701L8.20999 24.5201ZM9.20999 20.2601L8.99999 23.0001L11.74 22.7501L22.64 11.8301C22.8525 11.5785 22.9884 11.2713 23.0314 10.9448C23.0745 10.6184 23.0229 10.2864 22.8828 9.98842C22.7428 9.6904 22.5201 9.43886 22.2413 9.26366C21.9625 9.08846 21.6393 8.99697 21.31 9.00007C21.0936 8.98633 20.8766 9.01645 20.6721 9.08862C20.4676 9.16079 20.2798 9.27353 20.12 9.42007L9.20999 20.2601Z" fill="white"/>
</svg>
