<svg width="9" height="6" viewBox="0 0 9 6" fill="none" xmlns="http://www.w3.org/2000/svg">
<path d="M4.50009 5.50009C4.40155 5.50055 4.30391 5.48133 4.2129 5.44355C4.12189 5.40577 4.03934 5.3502 3.97009 5.28009L0.500091 1.78009C0.4087 1.63913 0.367279 1.47157 0.382467 1.30427C0.397654 1.13696 0.468571 0.979602 0.58385 0.857406C0.69913 0.73521 0.852096 0.655255 1.01823 0.630355C1.18437 0.605456 1.35405 0.637055 1.50009 0.720087L4.50009 3.72009L7.50009 0.720087C7.64613 0.637055 7.81581 0.605456 7.98195 0.630355C8.14809 0.655255 8.30105 0.73521 8.41633 0.857406C8.53161 0.979602 8.60253 1.13696 8.61771 1.30427C8.6329 1.47157 8.59148 1.63913 8.50009 1.78009L5.00009 5.28009C4.86758 5.4145 4.68872 5.4932 4.50009 5.50009Z" fill="#64748B"/>
</svg>
