<svg width="20" height="20" viewBox="0 0 20 20" fill="none" xmlns="http://www.w3.org/2000/svg">
<path d="M3.50828 17.1C3.42808 17.1008 3.34851 17.0858 3.27414 17.0557C3.19977 17.0257 3.13208 16.9813 3.07495 16.925C3.00945 16.8603 2.95906 16.7819 2.92736 16.6955C2.89567 16.609 2.88346 16.5167 2.89162 16.425L3.14995 13.225C3.16103 13.0764 3.22626 12.937 3.33328 12.8333L12.5499 3.61664C13.0635 3.13574 13.7467 2.87803 14.4499 2.89998C15.1486 2.9054 15.819 3.17653 16.3249 3.65831C16.8103 4.15665 17.0894 4.81994 17.1064 5.51533C17.1234 6.21072 16.877 6.88686 16.4166 7.40831L7.19162 16.6666C7.08837 16.7695 6.95317 16.8342 6.80828 16.85L3.56662 17.1416L3.50828 17.1ZM4.34162 13.55L4.16662 15.8333L6.44995 15.625L15.5333 6.52498C15.7104 6.31537 15.8236 6.05934 15.8595 5.78729C15.8953 5.51524 15.8524 5.23861 15.7356 4.99027C15.6189 4.74192 15.4334 4.5323 15.201 4.3863C14.9687 4.2403 14.6993 4.16406 14.4249 4.16664C14.2446 4.15519 14.0638 4.18029 13.8934 4.24044C13.723 4.30058 13.5665 4.39453 13.4333 4.51664L4.34162 13.55Z" fill="#3B82F6"/>
</svg>
