<svg width="14" height="14" viewBox="0 0 14 14" fill="white" xmlns="http://www.w3.org/2000/svg">
<path d="M7.62499 6.37435V1.16602C7.62499 1.00026 7.55914 0.841284 7.44193 0.724074C7.32472 0.606864 7.16575 0.541016 6.99999 0.541016C6.83423 0.541016 6.67526 0.606864 6.55805 0.724074C6.44084 0.841284 6.37499 1.00026 6.37499 1.16602V6.37435H1.16666C1.0009 6.37435 0.841925 6.4402 0.724715 6.55741C0.607504 6.67462 0.541656 6.83359 0.541656 6.99935C0.541656 7.16511 0.607504 7.32408 0.724715 7.44129C0.841925 7.5585 1.0009 7.62435 1.16666 7.62435H6.37499V12.8327C6.37715 12.9978 6.44369 13.1555 6.56044 13.2722C6.67718 13.389 6.8349 13.4555 6.99999 13.4577C7.16575 13.4577 7.32472 13.3918 7.44193 13.2746C7.55914 13.1574 7.62499 12.9984 7.62499 12.8327V7.62435H12.8333C12.9991 7.62435 13.1581 7.5585 13.2753 7.44129C13.3925 7.32408 13.4583 7.16511 13.4583 6.99935C13.4562 6.83426 13.3896 6.67654 13.2729 6.55979C13.1561 6.44305 12.9984 6.37651 12.8333 6.37435H7.62499Z" fill="white"/>
</svg>

