<svg width="24" height="23" viewBox="0 0 24 23" fill="none" xmlns="http://www.w3.org/2000/svg">
<g clip-path="url(#clip0_2207_30060)">
<path d="M7.83317 17.8647C7.83297 18.2381 7.7278 18.6043 7.52916 18.9232C7.33052 19.2421 7.04604 19.5015 6.70682 19.6731C6.3676 19.8446 5.98669 19.9216 5.60571 19.8958C5.22473 19.87 4.85834 19.7423 4.54658 19.5266C4.23482 19.3109 3.98969 19.0156 3.83797 18.6729C3.68625 18.3303 3.63378 17.9534 3.6863 17.5835C3.73881 17.2137 3.89429 16.865 4.13575 16.5757C4.3772 16.2864 4.69534 16.0676 5.05539 15.9431V4.28448C5.05539 4.1044 5.12856 3.93169 5.25879 3.80435C5.38903 3.67701 5.56566 3.60547 5.74984 3.60547C5.93402 3.60547 6.11065 3.67701 6.24088 3.80435C6.37112 3.93169 6.44428 4.1044 6.44428 4.28448V15.9431C6.85064 16.0836 7.20244 16.3439 7.45119 16.688C7.69994 17.0322 7.8334 17.4433 7.83317 17.8647Z" fill="#1E3A8A"/>
<path d="M2.27756 4.28373C2.27756 3.38331 2.64339 2.51976 3.29455 1.88306C3.94572 1.24636 4.82889 0.888672 5.74978 0.888672C6.67068 0.888672 7.55385 1.24636 8.20502 1.88306C8.85619 2.51976 9.22201 3.38331 9.22201 4.28373V14.5368C9.89192 15.2053 10.3451 16.0524 10.5246 16.9717C10.7042 17.891 10.6021 18.8417 10.2313 19.7046C9.8605 20.5675 9.2374 21.3041 8.44015 21.8221C7.64291 22.3401 6.707 22.6164 5.74978 22.6164C4.79257 22.6164 3.85666 22.3401 3.05942 21.8221C2.26217 21.3041 1.63907 20.5675 1.26825 19.7046C0.897438 18.8417 0.795408 17.891 0.97496 16.9717C1.15451 16.0524 1.60765 15.2053 2.27756 14.5368V4.28373ZM5.74978 2.2467C5.19725 2.2467 4.66735 2.46131 4.27665 2.84333C3.88595 3.22535 3.66645 3.74348 3.66645 4.28373V15.1303L3.43451 15.334C2.9103 15.7923 2.5408 16.3955 2.37488 17.0637C2.20897 17.7319 2.25448 18.4336 2.50538 19.076C2.75628 19.7184 3.20075 20.2711 3.77997 20.661C4.35919 21.051 5.04585 21.2598 5.74909 21.2598C6.45233 21.2598 7.13899 21.051 7.71821 20.661C8.29743 20.2711 8.7419 19.7184 8.9928 19.076C9.2437 18.4336 9.28921 17.7319 9.1233 17.0637C8.95739 16.3955 8.58788 15.7923 8.06367 15.334L7.83312 15.1289V4.28373C7.83312 3.74348 7.61363 3.22535 7.22292 2.84333C6.83222 2.46131 6.30232 2.2467 5.74978 2.2467ZM12.6942 3.60472C12.8784 3.60472 13.055 3.67626 13.1853 3.8036C13.3155 3.93094 13.3887 4.10365 13.3887 4.28373V5.64176C13.3887 5.82184 13.3155 5.99455 13.1853 6.12189C13.055 6.24923 12.8784 6.32077 12.6942 6.32077C12.5101 6.32077 12.3334 6.24923 12.2032 6.12189C12.0729 5.99455 11.9998 5.82184 11.9998 5.64176V4.28373C11.9998 4.10365 12.0729 3.93094 12.2032 3.8036C12.3334 3.67626 12.5101 3.60472 12.6942 3.60472ZM18.5873 5.99077C18.7175 6.1181 18.7906 6.29078 18.7906 6.47083C18.7906 6.65088 18.7175 6.82356 18.5873 6.95089L17.6053 7.91238C17.4749 8.03988 17.2981 8.11151 17.1137 8.11151C16.9293 8.11151 16.7524 8.03988 16.622 7.91238C16.4916 7.78488 16.4184 7.61195 16.4184 7.43163C16.4184 7.25132 16.4916 7.07839 16.622 6.95089L17.6053 5.99077C17.7356 5.86348 17.9122 5.79197 18.0963 5.79197C18.2805 5.79197 18.4571 5.86348 18.5873 5.99077ZM11.9998 8.35781C11.9998 8.17772 12.0729 8.00501 12.2032 7.87767C12.3334 7.75033 12.5101 7.6788 12.6942 7.6788C13.7993 7.6788 14.8591 8.10803 15.6405 8.87206C16.4219 9.6361 16.8609 10.6724 16.8609 11.7529C16.8609 12.8334 16.4219 13.8696 15.6405 14.6337C14.8591 15.3977 13.7993 15.8269 12.6942 15.8269C12.5101 15.8269 12.3334 15.7554 12.2032 15.6281C12.0729 15.5007 11.9998 15.328 11.9998 15.1479C11.9998 14.9678 12.0729 14.7951 12.2032 14.6678C12.3334 14.5405 12.5101 14.4689 12.6942 14.4689C13.4309 14.4689 14.1375 14.1828 14.6584 13.6734C15.1793 13.164 15.472 12.4732 15.472 11.7529C15.472 11.0325 15.1793 10.3417 14.6584 9.83233C14.1375 9.32297 13.4309 9.03682 12.6942 9.03682C12.5101 9.03682 12.3334 8.96528 12.2032 8.83794C12.0729 8.7106 11.9998 8.53789 11.9998 8.35781ZM18.2498 11.7529C18.2498 11.5728 18.3229 11.4001 18.4532 11.2727C18.5834 11.1454 18.7601 11.0739 18.9442 11.0739H20.3331C20.5173 11.0739 20.6939 11.1454 20.8242 11.2727C20.9544 11.4001 21.0276 11.5728 21.0276 11.7529C21.0276 11.933 20.9544 12.1057 20.8242 12.233C20.6939 12.3603 20.5173 12.4319 20.3331 12.4319H18.9442C18.7601 12.4319 18.5834 12.3603 18.4532 12.233C18.3229 12.1057 18.2498 11.933 18.2498 11.7529ZM16.622 15.5934C16.6865 15.5301 16.7631 15.48 16.8475 15.4457C16.9319 15.4115 17.0223 15.3939 17.1137 15.3939C17.205 15.3939 17.2955 15.4115 17.3798 15.4457C17.4642 15.48 17.5408 15.5301 17.6053 15.5934L18.5873 16.5548C18.7138 16.6829 18.7838 16.8544 18.7822 17.0325C18.7806 17.2105 18.7076 17.3808 18.5788 17.5067C18.4501 17.6326 18.2759 17.704 18.0938 17.7055C17.9117 17.7071 17.7363 17.6387 17.6053 17.515L16.622 16.5548C16.5573 16.4918 16.506 16.4168 16.471 16.3343C16.436 16.2519 16.418 16.1634 16.418 16.0741C16.418 15.9848 16.436 15.8964 16.471 15.8139C16.506 15.7314 16.5573 15.6564 16.622 15.5934ZM12.6942 17.185C12.8784 17.185 13.055 17.2565 13.1853 17.3838C13.3155 17.5112 13.3887 17.6839 13.3887 17.864V19.222C13.3887 19.4021 13.3155 19.5748 13.1853 19.7021C13.055 19.8295 12.8784 19.901 12.6942 19.901C12.5101 19.901 12.3334 19.8295 12.2032 19.7021C12.0729 19.5748 11.9998 19.4021 11.9998 19.222V17.864C11.9998 17.6839 12.0729 17.5112 12.2032 17.3838C12.3334 17.2565 12.5101 17.185 12.6942 17.185Z" fill="#1E3A8A"/>
</g>
<defs>
<clipPath id="clip0_2207_30060">
<rect width="22.2222" height="21.7284" fill="white" transform="translate(0.888672 0.888672)"/>
</clipPath>
</defs>
</svg>
